<?xml version="1.0" encoding="UTF-8"?>
<svg width="24px" height="24px" viewBox="0 0 24 24" version="1.1" xmlns="http://www.w3.org/2000/svg" xmlns:xlink="http://www.w3.org/1999/xlink">
    <!-- Generator: sketchtool 51.3 (57544) - http://www.bohemiancoding.com/sketch -->
    <title>9D6C3CC0-E249-4627-8926-DAA3D5F72B3D</title>
    <desc>Created with sketchtool.</desc>
    <defs></defs>
    <g id="Symbols" stroke="none" stroke-width="1" fill="none" fill-rule="evenodd">
        <g id="icon/calendar/2">
            <g id="bxs-calendar" transform="translate(1.000000, 0.000000)">
                <path d="M4.8,16.8 L7.2,16.8 L7.2,19.2 L4.8,19.2 L4.8,16.8 Z M14.4,16.8 L16.8,16.8 L16.8,19.2 L14.4,19.2 L14.4,16.8 Z M14.4,12 L16.8,12 L16.8,14.4 L14.4,14.4 L14.4,12 Z M4.8,12 L7.2,12 L7.2,14.4 L4.8,14.4 L4.8,12 Z M9.6,16.8 L12,16.8 L12,19.2 L9.6,19.2 L9.6,16.8 Z M9.6,12 L12,12 L12,14.4 L9.6,14.4 L9.6,12 Z" id="Shape"></path>
                <path d="M1.2,24 L20.4,24 C21.0627417,24 21.6,23.4627417 21.6,22.8 L21.6,8.412 L0,8.412 L0,22.8 C0,23.4627417 0.5372583,24 1.2,24 Z M14.4,12 L16.8,12 L16.8,14.4 L14.4,14.4 L14.4,12 Z M14.4,16.8 L16.8,16.8 L16.8,19.2 L14.4,19.2 L14.4,16.8 Z M9.6,12 L12,12 L12,14.4 L9.6,14.4 L9.6,12 Z M9.6,16.8 L12,16.8 L12,19.2 L9.6,19.2 L9.6,16.8 Z M4.8,12 L7.2,12 L7.2,14.4 L4.8,14.4 L4.8,12 Z M4.8,16.8 L7.2,16.8 L7.2,19.2 L4.8,19.2 L4.8,16.8 Z M21.6,3.6 C21.6,2.9372583 21.0627417,2.4 20.4,2.4 L16.8,2.4 L16.8,0 L14.4,0 L14.4,2.4 L7.2,2.4 L7.2,0 L4.8,0 L4.8,2.4 L1.2,2.4 C0.5372583,2.4 0,2.9372583 0,3.6 L0,6.012 L21.6,6.012 L21.6,3.6 Z" id="Shape" fill="#0F62AC" fill-rule="nonzero"></path>
            </g>
        </g>
    </g>
</svg>