<?xml version="1.0" encoding="UTF-8"?>
<svg width="16px" height="16px" viewBox="0 0 16 16" version="1.1" xmlns="http://www.w3.org/2000/svg" xmlns:xlink="http://www.w3.org/1999/xlink">
    <!-- Generator: sketchtool 51.3 (57544) - http://www.bohemiancoding.com/sketch -->
    <title>7CA6A188-0035-4394-A3AE-CDAE1F4A6E60</title>
    <desc>Created with sketchtool.</desc>
    <defs></defs>
    <g id="Page-1" stroke="none" stroke-width="1" fill="none" fill-rule="evenodd">
        <g id="Combo/Combo/Details/info" transform="translate(-1088.000000, -833.000000)" fill="#056DFF">
            <g id="info-contact" transform="translate(1024.000000, 754.000000)">
                <g id="Hotline" transform="translate(64.000000, 79.000000)">
                    <g id="icon/phone/3">
                        <g id="phone">
                            <path d="M7.98702881,0 C3.57623045,0 0,3.57623045 0,7.98702881 C0,12.3977613 3.57623045,15.9740576 7.98702881,15.9740576 C12.3978272,15.9740576 15.9739918,12.3977284 15.9739918,7.98702881 C15.9740247,3.57623045 12.3978272,0 7.98702881,0 Z M12.2047078,11.6539588 L11.5652016,12.2935967 C11.4510288,12.4076049 11.1167078,12.478749 11.1059753,12.478749 C9.0828642,12.4963951 7.13491358,11.7017284 5.70367078,10.2703539 C4.26851029,8.83437037 3.47292181,6.87947325 3.49428807,4.84954733 C3.49428807,4.84862551 3.56750617,4.52388477 3.68158025,4.41089712 L4.3210535,3.7713251 C4.55506173,3.53623045 5.00457613,3.42999177 5.31947325,3.53534156 L5.45399177,3.58021399 C5.76796708,3.68546502 6.09761317,4.03262551 6.18436214,4.35246091 L6.50604115,5.53310288 C6.59279012,5.85386008 6.47578601,6.3101893 6.24184362,6.54419753 L5.81484774,6.97125926 C6.23407407,8.52325926 7.45181893,9.74123457 9.0040823,10.1614815 L9.43091358,9.73432099 C9.66600823,9.49922634 10.1221728,9.38232099 10.4422387,9.46893827 L11.622716,9.79176955 C11.9426173,9.87967078 12.2897119,10.2072428 12.39493,10.5211193 L12.4398025,10.6575802 C12.5440988,10.9715885 12.4386831,11.4210041 12.2047078,11.6539588 Z" id="Shape" fill-rule="nonzero"></path>
                        </g>
                    </g>
                </g>
            </g>
        </g>
    </g>
</svg>