<?xml version="1.0" encoding="UTF-8"?>
<svg width="20px" height="20px" viewBox="0 0 20 20" version="1.1" xmlns="http://www.w3.org/2000/svg" xmlns:xlink="http://www.w3.org/1999/xlink">
    <!-- Generator: sketchtool 51.3 (57544) - http://www.bohemiancoding.com/sketch -->
    <title>AE6C997C-986C-4840-8375-77ACB5E9EA20</title>
    <desc>Created with sketchtool.</desc>
    <defs></defs>
    <g id="Symbols" stroke="none" stroke-width="1" fill="none" fill-rule="evenodd">
        <g id="icon/code/gray-2" fill="#0F62AC" fill-rule="nonzero">
            <g id="Group" transform="translate(1.000000, 1.000000)">
                <polygon id="Shape" points="2.21784466 2.21784466 4.99019417 2.21784466 4.99019417 4.99019417 2.21784466 4.99019417"></polygon>
                <polygon id="Shape" points="2.21784466 12.9904078 4.99019417 12.9904078 4.99019417 15.7627573 2.21784466 15.7627573"></polygon>
                <path d="M0,9.5447767 L0,17.9806019 L7.20809709,17.9806019 L7.20809709,14.099301 L8.87149515,14.099301 L8.87149515,17.9013786 L10.8913398,17.9013786 L10.8913398,16.2379806 L12.4755146,16.2379806 L12.4755146,17.9013786 L14.4953592,17.9013786 L14.4953592,16.0003689 L15.9607573,16.0003689 L15.9607573,17.9013786 L17.9806019,17.9013786 L17.9806019,15.881534 L16.0795922,15.881534 L16.0795922,13.9805243 L14.0597476,13.9805243 L14.0597476,15.881534 L12.7328155,15.881534 L12.7328155,11.9606796 L10.8913398,11.9606796 L10.8913398,10.2972816 L12.7923495,10.2972816 L12.7923495,12.1982913 L14.8121942,12.1982913 L14.8121942,10.9309515 L15.9607573,10.9309515 L15.9607573,13.7825243 L17.9806019,13.7825243 L17.9806019,10.8121748 L16.7132621,10.8121748 L16.7132621,9.02994175 L17.9806019,9.02994175 L17.9806019,0 L10.7725049,0 L10.7725049,0.0132815534 L8.87149515,0.0132815534 L8.87149515,2.21784466 L7.20809709,2.21784466 L7.20809709,0 L0,0 L0,8.39621359 L1.26733981,8.39621359 L1.26733981,9.5447767 L0,9.5447767 Z M5.94069903,16.7132621 L1.26733981,16.7132621 L1.26733981,12.0399029 L5.94069903,12.0399029 L5.94069903,16.7132621 Z M8.99027184,12.1982913 L10.7132621,12.1982913 L10.7132621,13.9805243 L8.99027184,13.9805243 L8.99027184,12.1982913 Z M8.99027184,8.39621359 L10.5941359,8.39621359 L10.5941359,10.1784466 L8.99027184,10.1784466 L8.99027184,8.39621359 Z M15.9607573,8.9111068 L14.8714369,8.9111068 L14.8714369,8.27743689 L10.8912816,8.27743689 L10.8912816,7.20809709 L15.960699,7.20809709 L15.960699,8.9111068 L15.9607573,8.9111068 Z M12.0398447,1.26733981 L16.7132039,1.26733981 L16.7132039,5.94069903 L12.0398447,5.94069903 L12.0398447,1.26733981 Z M10.7725049,6.37636893 L8.99027184,6.37636893 L8.99027184,2.42918447 L10.7725049,2.42918447 L10.7725049,6.37636893 Z M8.87149515,8.27743689 L7.21316505,8.27743689 L7.21316505,6.49520388 L8.87149515,6.49520388 L8.87149515,8.27743689 Z M1.26733981,1.26733981 L5.94069903,1.26733981 L5.94069903,5.94069903 L1.26733981,5.94069903 L1.26733981,1.26733981 Z M5.19332039,7.20809709 L5.19332039,8.39621359 L6.97048544,8.39621359 L6.97048544,10.2972233 L8.87149515,10.2972233 L8.87149515,12.0794563 L7.20809709,12.0794563 L7.20809709,10.7725049 L2.01984466,10.7725049 L2.01984466,10.2972233 L5.18825243,10.2972233 L5.18825243,8.27737864 L2.01984466,8.27737864 L2.01984466,7.20803883 L5.19332039,7.20803883 L5.19332039,7.20809709 Z" id="Shape"></path>
                <polygon id="Shape" points="12.9904078 2.21784466 15.7627573 2.21784466 15.7627573 4.99019417 12.9904078 4.99019417"></polygon>
            </g>
        </g>
    </g>
</svg>