<?xml version="1.0" encoding="UTF-8"?>
<svg width="16px" height="16px" viewBox="0 0 16 16" version="1.1" xmlns="http://www.w3.org/2000/svg" xmlns:xlink="http://www.w3.org/1999/xlink">
    <!-- Generator: sketchtool 51.3 (57544) - http://www.bohemiancoding.com/sketch -->
    <title>FEDFDC11-5665-4A7D-A18B-CFEB820550EE</title>
    <desc>Created with sketchtool.</desc>
    <defs></defs>
    <g id="Page-1" stroke="none" stroke-width="1" fill="none" fill-rule="evenodd">
        <g id="Tour/Tour-details/Price" transform="translate(-568.000000, -926.000000)" fill="#0F62AC" fill-rule="nonzero">
            <g id="Group-9-Copy" transform="translate(147.000000, 780.000000)">
                <g id="Group">
                    <g id="Group-8-Copy-7" transform="translate(421.000000, 139.000000)">
                        <g id="icon/journeys/blue1" transform="translate(0.000000, 7.000000)">
                            <path d="M2.84444444,15.7660819 C1.27350116,15.7660819 1.92385067e-16,14.4255543 0,12.7719298 L16,12.7719298 C16,14.4255543 14.7264988,15.7660819 13.1555556,15.7660819 L2.84444444,15.7660819 Z M13.1555556,3.072 C14.7264,3.072 16,4.41300585 16,6.06615205 L16,11.6494971 L0,11.6494971 L0,6.06652632 C1.92385067e-16,4.4129018 1.27350116,3.07237427 2.84444444,3.07237427 L4.33742222,3.07237427 C4.86648889,1.47723977 6.30613333,0.32748538 8,0.32748538 C9.69386667,0.32748538 11.1331556,1.4768655 11.6625778,3.072 L13.1555556,3.072 Z M5.90044444,3.072 L10.0992,3.072 C9.65495017,2.29822497 8.85889993,1.82503436 8,1.82418713 C7.11075556,1.82418713 6.33244444,2.32533333 5.90044444,3.072 Z" id="Combined-Shape"></path>
                        </g>
                    </g>
                </g>
            </g>
        </g>
    </g>
</svg>