<?xml version="1.0" encoding="UTF-8"?>
<svg width="40px" height="40px" viewBox="0 0 40 40" version="1.1" xmlns="http://www.w3.org/2000/svg" xmlns:xlink="http://www.w3.org/1999/xlink">
    <!-- Generator: sketchtool 51.3 (57544) - http://www.bohemiancoding.com/sketch -->
    <title>7E708DDE-E129-484F-BF5E-F9A5260D47F9</title>
    <desc>Created with sketchtool.</desc>
    <defs></defs>
    <g id="Symbols" stroke="none" stroke-width="1" fill="none" fill-rule="evenodd">
        <g id="icon/traveler" fill="#0F62AC" fill-rule="nonzero">
            <g id="traveler-with-a-suitcase" transform="translate(3.000000, 0.000000)">
                <circle id="Oval" cx="22.143629" cy="4.47556452" r="4.47556452"></circle>
                <path d="M33.3153226,15.3925 C29.3158871,14.981129 25.4382258,10.6532258 24.4623387,10.053871 C23.8635484,9.6216129 23.1554839,9.33854839 22.4781452,9.23290323 C22.4781452,9.23290323 21.9966935,9.13298387 21.4991129,9.18790323 C21.0229032,9.24080645 20.2987903,9.26540323 19.2385484,10.0557258 C19.1617742,10.1034677 18.6201613,10.575 18.4493548,10.7804839 C17.1297581,12.1483065 13.4731452,16.1932258 11.6529839,20.7689516 C11.3957258,21.4189516 11.5589516,22.125 12.0070161,22.6012097 L9.86943548,26.4100806 L6.85822581,24.7184677 C6.49879032,24.5162097 6.04258065,24.6425 5.84064516,25.0024194 L0.141209677,35.0733871 C-0.0605645161,35.4329032 0.0670967742,35.891129 0.427419355,36.0912903 L2.70701613,37.3732258 C2.3441129,38.0191935 2.43145161,38.8548387 2.97967742,39.4103226 C3.64072581,40.0850806 4.72677419,40.0933065 5.40040323,39.4303226 C6.02653226,38.8126613 6.07766129,37.8319355 5.54709677,37.1557258 L8.65919355,31.6957258 L10.8394355,27.8107258 L13.5418548,23.1259677 C14.1262097,23.0329839 14.6499194,22.6434677 14.8852419,22.0525806 C15.6555645,20.1129839 16.8484677,18.2442742 18.0004839,16.6957258 L18.5433871,22.9348387 C18.6062903,23.6677419 18.9116129,24.2825806 19.3641935,24.7679032 C17.9645161,27.306129 14.1977419,34.2470161 12.8378226,36.6051613 C12.228629,37.6634677 12.5907258,39.0156452 13.6483871,39.6256452 C14.0454839,39.8532258 14.4849194,39.9470161 14.9104839,39.9162903 C15.6183065,39.8650806 16.2880645,39.4740323 16.668629,38.813871 C17.9356452,36.6174194 21.2402419,29.9512903 22.6896774,27.4455645 C23.8516935,29.3766129 25.8315323,32.9301613 28.3432258,38.6048387 C28.7083871,39.4317742 29.5176613,39.9218548 30.3670968,39.9218548 C30.6675,39.9218548 30.9702419,39.8614516 31.2618548,39.7320161 C32.3779839,39.2382258 32.8830645,37.9325806 32.3879839,36.8166129 C29.4260484,30.1199194 27.2451613,26.4024194 26.0368548,24.4445968 C26.5144355,23.8450806 26.8020968,23.0998387 26.7268548,22.2253226 L26.2129839,16.3157258 C27.7014516,17.5041935 29.6437097,18.5054032 32.96,18.8483065 C33.0216129,18.8549194 33.0812903,18.8579032 33.1416129,18.8579032 C34.02,18.8579032 34.7752419,18.1932258 34.8675,17.2997581 C34.9641129,16.3444355 34.2704839,15.4907258 33.3153226,15.3925 Z M4.16508065,38.8887097 C3.82072581,38.8887097 3.54145161,38.6095161 3.54145161,38.2654032 C3.54145161,37.9212903 3.82072581,37.6420968 4.16508065,37.6420968 C4.50926797,37.6422303 4.78825358,37.9212159 4.7883871,38.2654032 C4.78829806,38.609609 4.50928641,38.8886206 4.16508065,38.8887097 Z" id="Shape"></path>
            </g>
        </g>
    </g>
</svg>